<?xml version="1.0" encoding="utf-8"?>
<!-- Generator: Adobe Illustrator 24.1.0, SVG Export Plug-In . SVG Version: 6.00 Build 0)  -->
<svg version="1.1" id="隔离模式" xmlns="http://www.w3.org/2000/svg" xmlns:xlink="http://www.w3.org/1999/xlink" x="0px"
	 y="0px" viewBox="0 0 32 20.6393566" style="enable-background:new 0 0 32 20.6393566;" xml:space="preserve">
<style type="text/css">
	.st0{fill:url(#SVGID_1_);}
	.st1{fill:#FFFFFF;}
</style>
<g>
	<linearGradient id="SVGID_1_" gradientUnits="userSpaceOnUse" x1="0" y1="10.3196783" x2="32" y2="10.3196783">
		<stop  offset="0" style="stop-color:#3CA9FF"/>
		<stop  offset="1" style="stop-color:#5457FF"/>
	</linearGradient>
	<path class="st0" d="M27.8165817,8.0498571C26.8577538,3.4457254,23.0684509,0,18.5206375,0
		c-2.6981525,0-5.123517,1.221356-6.8595858,3.1675141c-0.8806553-0.5962613-1.9131756-0.9552507-3.028348-0.9552507
		c-3.1643338,0-5.7297564,2.7735283-5.7297564,6.1948223c0,0.0843,0.0203571,0.1628771,0.0232072,0.2462959
		C1.1807218,9.7809734,0,11.8226566,0,14.1806297c0,3.5670013,2.6741312,6.4587269,5.9736376,6.4587269h20.0527229
		C29.3254642,20.6393566,32,17.7476311,32,14.1806297C32,11.2926464,30.2350254,8.8761272,27.8165817,8.0498571z"/>
	<g>
		<path class="st1" d="M5.8850331,15.6863165l3.1692214-7.6599627h1.8719978l3.1701565,7.6599627h-1.90658l-0.7467442-1.7682581
			H8.5374222l-0.7458096,1.7682581H5.8850331z M9.9963284,9.8749886L8.905653,12.5507421h2.1813517L9.9963284,9.8749886z"/>
		<path class="st1" d="M16.5534668,13.0105639v2.6757526h-1.6299391V8.0263538h3.8234377
			c0.6972103,0,1.194418,0.0495348,1.4934883,0.1495361c0.5056171,0.1682281,0.9028206,0.5168324,1.194416,1.0448799
			c0.2140236,0.398139,0.3215008,0.8308582,0.3215008,1.2972221c0,0.3906622-0.0710278,0.7607622-0.2121525,1.1084337
			c-0.1420593,0.3486032-0.3392601,0.6336555-0.5916004,0.8560905c-0.2299118,0.199069-0.4729061,0.3364553-0.7299213,0.4130926
			c-0.2560806,0.0766363-0.606554,0.1149549-1.0504875,0.1149549H16.5534668z M16.5534668,11.6441822h2.2168655
			c0.398138,0,0.6775818-0.0616837,0.8383331-0.1841154c0.2373886-0.1915932,0.356081-0.5243092,0.356081-0.9990854
			c0-0.5130939-0.1803761-0.8420725-0.5401955-0.9878702c-0.1299095-0.0532713-0.3364563-0.0803747-0.6196384-0.0803747h-2.2514458
			V11.6441822z"/>
		<path class="st1" d="M22.9006348,15.6863165V8.0263538h1.62994v7.6599627H22.9006348z"/>
	</g>
</g>
</svg>
