<svg width="25" height="25" viewBox="0 0 25 25" fill="none" xmlns="http://www.w3.org/2000/svg">
<path d="M1.28359 5.95371C1.54614 5.95371 1.75898 5.74087 1.75898 5.47832C1.75898 5.21577 1.54614 5.00293 1.28359 5.00293C1.02104 5.00293 0.808197 5.21577 0.808197 5.47832C0.808197 5.74087 1.02104 5.95371 1.28359 5.95371Z" fill="url(#paint0_linear_33_2311)"/>
<path d="M19.349 1.19976C19.349 1.46231 19.5618 1.67515 19.8244 1.67515C20.0869 1.67515 20.2997 1.46231 20.2997 1.19976C20.2997 0.937205 20.0869 0.724365 19.8244 0.724365C19.5618 0.724365 19.349 0.937205 19.349 1.19976Z" fill="url(#paint1_linear_33_2311)"/>
<path d="M6.03751 24.0185C6.03751 23.756 5.82467 23.5431 5.56212 23.5431C5.29957 23.5431 5.08673 23.756 5.08673 24.0185C5.08673 24.2811 5.29957 24.4939 5.56212 24.4939C5.82467 24.4939 6.03751 24.2811 6.03751 24.0185Z" fill="url(#paint2_linear_33_2311)"/>
<path d="M24.1029 19.2645C23.8403 19.2645 23.6275 19.4774 23.6275 19.7399C23.6275 20.0025 23.8403 20.2153 24.1029 20.2153C24.3654 20.2153 24.5782 20.0025 24.5782 19.7399C24.5782 19.4774 24.3654 19.2645 24.1029 19.2645Z" fill="url(#paint3_linear_33_2311)"/>
<path d="M5.56212 1.67515C5.82467 1.67515 6.03751 1.46231 6.03751 1.19976C6.03751 0.937205 5.82467 0.724365 5.56212 0.724365C5.29957 0.724365 5.08673 0.937205 5.08673 1.19976C5.08673 1.46231 5.29957 1.67515 5.56212 1.67515Z" fill="url(#paint4_linear_33_2311)"/>
<path d="M23.6275 5.47832C23.6275 5.74087 23.8403 5.95371 24.1029 5.95371C24.3654 5.95371 24.5782 5.74087 24.5782 5.47832C24.5782 5.21577 24.3654 5.00293 24.1029 5.00293C23.8403 5.00293 23.6275 5.21577 23.6275 5.47832Z" fill="url(#paint5_linear_33_2311)"/>
<path d="M1.75898 19.7399C1.75898 19.4774 1.54614 19.2645 1.28359 19.2645C1.02104 19.2645 0.808197 19.4774 0.808197 19.7399C0.808197 20.0025 1.02104 20.2153 1.28359 20.2153C1.54614 20.2153 1.75898 20.0025 1.75898 19.7399Z" fill="url(#paint6_linear_33_2311)"/>
<path d="M19.8244 23.5431C19.5618 23.5431 19.349 23.756 19.349 24.0185C19.349 24.2811 19.5618 24.4939 19.8244 24.4939C20.0869 24.4939 20.2997 24.2811 20.2997 24.0185C20.2997 23.756 20.0869 23.5431 19.8244 23.5431Z" fill="url(#paint7_linear_33_2311)"/>
<path fill-rule="evenodd" clip-rule="evenodd" d="M1.75898 3.57672V1.67515H3.66055C3.78663 1.67515 3.90755 1.62506 3.9967 1.53591C4.08585 1.44676 4.13594 1.32584 4.13594 1.19976C4.13594 1.07368 4.08585 0.952758 3.9967 0.863604C3.90755 0.774451 3.78663 0.724365 3.66055 0.724365H1.28359C1.15751 0.724365 1.03659 0.774451 0.947436 0.863604C0.858283 0.952758 0.808197 1.07368 0.808197 1.19976V3.57672C0.808197 3.7028 0.858283 3.82372 0.947436 3.91287C1.03659 4.00202 1.15751 4.05211 1.28359 4.05211C1.40967 4.05211 1.53059 4.00202 1.61974 3.91287C1.70889 3.82372 1.75898 3.7028 1.75898 3.57672Z" fill="url(#paint8_linear_33_2311)"/>
<path fill-rule="evenodd" clip-rule="evenodd" d="M22.6762 3.10137C22.6762 2.97529 22.6261 2.85437 22.537 2.76522C22.4478 2.67606 22.3269 2.62598 22.2008 2.62598H3.18514C3.05906 2.62598 2.93814 2.67606 2.84899 2.76522C2.75983 2.85437 2.70975 2.97529 2.70975 3.10137V22.117C2.70975 22.2431 2.75983 22.364 2.84899 22.4532C2.93814 22.5423 3.05906 22.5924 3.18514 22.5924H22.2008C22.3269 22.5924 22.4478 22.5423 22.537 22.4532C22.6261 22.364 22.6762 22.2431 22.6762 22.117V3.10137ZM21.7254 3.57676V21.6416H3.66053V3.57676H21.7254Z" fill="url(#paint9_linear_33_2311)"/>
<path fill-rule="evenodd" clip-rule="evenodd" d="M6.98828 3.10132V6.90445H3.18515V3.10132H6.98828ZM6.98828 10.7076V14.5107H3.18515V10.7076H6.98828ZM6.98828 18.3139V22.117H3.18515V18.3139H6.98828ZM10.7914 6.90445V10.7076H6.98828V6.90445H10.7914ZM10.7914 14.5107V18.3139H6.98828V14.5107H10.7914ZM14.595 3.10132V6.90445H10.7914L10.7919 3.10132H14.595ZM14.595 10.7076V14.5107H10.7914V10.7076H14.595ZM14.595 18.3139V22.117H10.7919L10.7914 18.3139H14.595ZM18.3982 6.90445V10.7076H14.595V6.90445H18.3982ZM18.3982 14.5107V18.3139H14.595V14.5107H18.3982ZM22.2013 3.10132V6.90445H18.3982V3.10132H22.2013ZM22.2013 10.7076V14.5107H18.3982V10.7076H22.2013ZM22.2013 18.3139V22.117H18.3982V18.3139H22.2013Z" fill="url(#paint10_linear_33_2311)"/>
<path fill-rule="evenodd" clip-rule="evenodd" d="M21.7254 1.67515H23.627V3.57672C23.627 3.7028 23.6771 3.82372 23.7662 3.91287C23.8554 4.00202 23.9763 4.05211 24.1024 4.05211C24.2285 4.05211 24.3494 4.00202 24.4385 3.91287C24.5277 3.82372 24.5778 3.7028 24.5778 3.57672V1.19976C24.5778 1.07368 24.5277 0.952758 24.4385 0.863604C24.3494 0.774451 24.2285 0.724365 24.1024 0.724365H21.7254C21.5994 0.724365 21.4784 0.774451 21.3893 0.863604C21.3001 0.952758 21.25 1.07368 21.25 1.19976C21.25 1.32584 21.3001 1.44676 21.3893 1.53591C21.4784 1.62506 21.5994 1.67515 21.7254 1.67515ZM3.66055 23.5432H1.75898V21.6416C1.75898 21.5155 1.70889 21.3946 1.61974 21.3055C1.53059 21.2163 1.40967 21.1662 1.28359 21.1662C1.15751 21.1662 1.03659 21.2163 0.947436 21.3055C0.858283 21.3946 0.808197 21.5155 0.808197 21.6416V24.0186C0.808197 24.1446 0.858283 24.2656 0.947436 24.3547C1.03659 24.4439 1.15751 24.494 1.28359 24.494H3.66055C3.78663 24.494 3.90755 24.4439 3.9967 24.3547C4.08585 24.2656 4.13594 24.1446 4.13594 24.0186C4.13594 23.8925 4.08585 23.7716 3.9967 23.6824C3.90755 23.5933 3.78663 23.5432 3.66055 23.5432ZM23.627 21.6416V23.5432H21.7254C21.5994 23.5432 21.4784 23.5933 21.3893 23.6824C21.3001 23.7716 21.25 23.8925 21.25 24.0186C21.25 24.1446 21.3001 24.2656 21.3893 24.3547C21.4784 24.4439 21.5994 24.494 21.7254 24.494H24.1024C24.2285 24.494 24.3494 24.4439 24.4385 24.3547C24.5277 24.2656 24.5778 24.1446 24.5778 24.0186V21.6416C24.5778 21.5155 24.5277 21.3946 24.4385 21.3055C24.3494 21.2163 24.2285 21.1662 24.1024 21.1662C23.9763 21.1662 23.8554 21.2163 23.7662 21.3055C23.6771 21.3946 23.627 21.5155 23.627 21.6416Z" fill="url(#paint11_linear_33_2311)"/>
<defs>
<linearGradient id="paint0_linear_33_2311" x1="0.826682" y1="5.19455" x2="1.76885" y2="5.21314" gradientUnits="userSpaceOnUse">
<stop stop-color="#EA81FF"/>
<stop offset="1" stop-color="#6AE4FF"/>
</linearGradient>
<linearGradient id="paint1_linear_33_2311" x1="20.1081" y1="0.742851" x2="20.0895" y2="1.68502" gradientUnits="userSpaceOnUse">
<stop stop-color="#EA81FF"/>
<stop offset="1" stop-color="#6AE4FF"/>
</linearGradient>
<linearGradient id="paint2_linear_33_2311" x1="5.27835" y1="24.4754" x2="5.29694" y2="23.5332" gradientUnits="userSpaceOnUse">
<stop stop-color="#EA81FF"/>
<stop offset="1" stop-color="#6AE4FF"/>
</linearGradient>
<linearGradient id="paint3_linear_33_2311" x1="24.5598" y1="20.0237" x2="23.6176" y2="20.0051" gradientUnits="userSpaceOnUse">
<stop stop-color="#EA81FF"/>
<stop offset="1" stop-color="#6AE4FF"/>
</linearGradient>
<linearGradient id="paint4_linear_33_2311" x1="5.10522" y1="0.915985" x2="6.04739" y2="0.934571" gradientUnits="userSpaceOnUse">
<stop stop-color="#EA81FF"/>
<stop offset="1" stop-color="#6AE4FF"/>
</linearGradient>
<linearGradient id="paint5_linear_33_2311" x1="24.3866" y1="5.02142" x2="24.368" y2="5.96359" gradientUnits="userSpaceOnUse">
<stop stop-color="#EA81FF"/>
<stop offset="1" stop-color="#6AE4FF"/>
</linearGradient>
<linearGradient id="paint6_linear_33_2311" x1="0.999817" y1="20.1968" x2="1.0184" y2="19.2547" gradientUnits="userSpaceOnUse">
<stop stop-color="#EA81FF"/>
<stop offset="1" stop-color="#6AE4FF"/>
</linearGradient>
<linearGradient id="paint7_linear_33_2311" x1="20.2813" y1="24.3023" x2="19.3391" y2="24.2837" gradientUnits="userSpaceOnUse">
<stop stop-color="#EA81FF"/>
<stop offset="1" stop-color="#6AE4FF"/>
</linearGradient>
<linearGradient id="paint8_linear_33_2311" x1="0.872896" y1="1.39504" x2="4.17049" y2="1.46009" gradientUnits="userSpaceOnUse">
<stop stop-color="#EA81FF"/>
<stop offset="1" stop-color="#6AE4FF"/>
</linearGradient>
<linearGradient id="paint9_linear_33_2311" x1="3.09794" y1="6.65" x2="22.8835" y2="7.0403" gradientUnits="userSpaceOnUse">
<stop stop-color="#EA81FF"/>
<stop offset="1" stop-color="#6AE4FF"/>
</linearGradient>
<linearGradient id="paint10_linear_33_2311" x1="3.55487" y1="6.93372" x2="22.3988" y2="7.30546" gradientUnits="userSpaceOnUse">
<stop stop-color="#EA81FF"/>
<stop offset="1" stop-color="#6AE4FF"/>
</linearGradient>
<linearGradient id="paint11_linear_33_2311" x1="1.27033" y1="5.51487" x2="24.8246" y2="5.97951" gradientUnits="userSpaceOnUse">
<stop stop-color="#EA81FF"/>
<stop offset="1" stop-color="#6AE4FF"/>
</linearGradient>
</defs>
</svg>
