<svg width="19" height="20" viewBox="0 0 19 20" fill="none" xmlns="http://www.w3.org/2000/svg">
<path d="M3.12994 10.5731C3.12994 14.1742 6.0536 17.0622 9.61904 17.0622C13.1845 17.0622 16.1081 14.1385 16.1081 10.5731C16.1081 6.972 13.2201 4.04834 9.61904 4.04834C6.01795 4.04834 3.12994 6.972 3.12994 10.5731ZM8.90595 10.2165V6.75807C8.90595 6.36587 9.22684 6.04499 9.61904 6.04499C10.0112 6.04499 10.3321 6.40153 10.3321 6.75807V10.0026H12.4001C12.7923 10.0026 13.1132 10.3235 13.1132 10.7157C13.1132 11.1079 12.7566 11.4288 12.4001 11.4288H9.61904C9.22684 11.4288 8.90595 11.1079 8.90595 10.7157V10.2165Z" fill="white"/>
<path d="M18.3544 7.79202C17.2847 4.40485 14.2898 1.98035 10.7956 1.48119C10.8313 1.37423 10.8669 1.26727 10.8669 1.19596C10.8669 0.910722 10.6887 0.661142 10.4747 0.554179C10.1895 0.411561 9.90427 0.48287 9.65469 0.696796L8.90595 1.33858C8.79899 1.44554 8.65637 1.51685 8.58506 1.62381C8.51375 1.73077 8.4781 1.87339 8.4781 2.01601C8.4781 2.3369 8.69202 2.51517 8.8703 2.76475C9.08422 3.01433 9.29815 3.29957 9.54773 3.54915C9.93993 4.01265 10.76 3.65611 10.76 3.08564V2.94302C13.2914 3.33522 15.5377 4.93967 16.6786 7.29286C17.9622 9.96694 17.5343 13.3184 15.609 15.5647C13.6836 17.8466 10.5817 18.8449 7.6937 18.0961C4.84135 17.3474 2.66643 14.9942 2.09596 12.1419C1.34722 8.57642 3.34387 5.01098 6.58842 3.51349C6.94496 3.37087 7.01627 2.83606 6.838 2.55082C6.62407 2.19428 6.23187 2.12297 5.87533 2.30124C2.48816 3.83438 0.313245 7.39982 0.527171 11.1435C0.741097 14.6733 2.95167 17.7752 6.19622 19.1301C9.47642 20.485 13.3271 19.7719 15.8942 17.383C18.4257 14.9229 19.424 11.1435 18.3544 7.79202Z" fill="white"/>
</svg>
