<svg width="24" height="18" viewBox="0 0 24 18" fill="none" xmlns="http://www.w3.org/2000/svg">
<path d="M19.436 6.48192C19.1067 3.0595 16.2573 0.374268 12.75 0.374268C10.0348 0.374268 7.71125 1.98534 6.64011 4.29702C6.31683 4.19423 5.98154 4.12451 5.62528 4.12451C3.7614 4.12451 2.25009 5.63657 2.25009 7.49969C2.25009 7.87022 2.32435 8.22052 2.4346 8.55279C0.984044 9.39814 0 10.95 0 12.7486C0 15.4413 2.18263 17.6239 4.87533 17.6239V17.6254H18.3761V17.6239C21.4836 17.6239 24 15.106 24 11.9985C23.9992 9.25634 22.0348 6.97847 19.436 6.48192ZM15.5762 11.3422L12.7403 14.1376C12.168 14.7114 11.8155 14.6927 11.2597 14.1376L8.42378 11.3422C8.01726 10.6785 8.34952 10.1354 9.16408 10.1354H10.4999V7.12623C10.4999 6.71148 10.836 6.37469 11.25 6.37469H12.75C13.1648 6.37469 13.5001 6.71148 13.5001 7.12623V10.1354L14.8344 10.1354C15.649 10.1354 15.9835 10.6785 15.5762 11.3422Z" fill="#0B71FF"/>
</svg>
