<svg width="27" height="25" viewBox="0 0 27 25" fill="none" xmlns="http://www.w3.org/2000/svg">
<path d="M20.6543 17.0201L25.6177 12.0567C27.1379 10.5364 27.1379 8.06176 25.6177 6.5415L21.2061 2.12994C19.6851 0.609681 17.2104 0.609681 15.691 2.12994L10.7276 7.09333L20.6543 17.0201ZM25.9802 22.6689H15.0054L19.5514 18.1229L9.62468 8.19622L4.66129 13.1596C3.14103 14.6798 3.14103 17.1545 4.66129 18.6747L9.98683 24.0003C10.0592 24.0727 10.1452 24.1302 10.2398 24.1694C10.3344 24.2086 10.4358 24.2288 10.5383 24.2288H25.9802C26.4112 24.2288 26.7601 23.88 26.7601 23.4489C26.7601 23.0178 26.4113 22.6689 25.9802 22.6689ZM2.58197 22.6689H0.918094C0.486995 22.6689 0.138153 22.3201 0.138153 21.889C0.138153 21.4579 0.486995 21.109 0.918094 21.109H2.58197C3.01307 21.109 3.36191 21.4579 3.36191 21.889C3.36191 22.3201 3.01307 22.6689 2.58197 22.6689ZM1.80203 19.8721L0.699139 18.7692C0.394494 18.4646 0.394494 17.971 0.699139 17.6663C1.00378 17.3617 1.49738 17.3617 1.80203 17.6663L2.90492 18.7692C3.20956 19.0739 3.20956 19.5674 2.90492 19.8721C2.60027 20.1767 2.10672 20.1768 1.80203 19.8721Z" fill="url(#paint0_linear_31_2225)"/>
<defs>
<linearGradient id="paint0_linear_31_2225" x1="0.655746" y1="5.67332" x2="27.0333" y2="6.26941" gradientUnits="userSpaceOnUse">
<stop stop-color="#EA81FF"/>
<stop offset="1" stop-color="#6AE4FF"/>
</linearGradient>
</defs>
</svg>
