<svg width="18" height="24" viewBox="0 0 18 24" fill="none" xmlns="http://www.w3.org/2000/svg">
<g clip-path="url(#clip0_1286_1209)">
<path d="M7.4 23.6987C6.2 23.4979 5.2 22.9958 4.2 22.2929C3.5 21.7908 3 21.0879 2.4 20.4854C1.6 19.4812 0.9 18.477 0.5 17.272C0.2 16.4686 0.1 15.6653 8.61473e-08 14.8619C-0.0999999 12.0502 0.8 9.64017 2.4 7.53138C2.4 7.53138 2.4 7.43096 2.5 7.43096C2.5 8.43515 2.7 9.23849 3.2 10.0418C3.3 10.3431 3.5 10.5439 3.8 10.8452C3.8 10.5439 3.7 10.3431 3.7 10.0418C3.4 7.83264 4 5.92469 5.4 4.21757C6.7 2.61088 8.3 1.50628 10.2 0.602511C10.6 0.401674 11.1 0.200837 11.6 0V0.100418C10.7 1.20502 10.5 2.41004 10.7 3.8159C10.9 5.22176 11.5 6.42678 12.2 7.6318C12.8 8.7364 13.5 9.841 14.1 10.9456C14.5 11.749 14.8 12.6527 14.8 13.5565C14.8 13.6569 14.8 13.6569 14.9 13.7573C15.8 12.0502 16.7 10.3431 16.3 8.33473C16.6 8.7364 16.9 9.13808 17.2 9.64017C17.8 10.7448 18 11.9498 18.1 13.2552C18.2 14.2594 18.1 15.2636 18 16.1674C17.8 17.8745 17.4 19.5816 16.3 21.0879C15.5 22.0921 14.5 22.8954 13.4 23.4979C12.5 23.8996 11.6 24.1004 10.7 24.2008C10.5 24.2008 10.3 24.2008 10.1 24.2008C10.1 24 10.2 24.1004 10.3 24C11 23.7992 11.7 23.4979 12.3 22.9958C13.3 22.0921 13.9 21.0879 14.1 19.7824C14.2 18.8787 14.1 18.0753 13.7 17.272C13.7 17.1715 13.6 17.1715 13.6 17.0711C13.7 17.9749 13.6 18.8787 13.3 19.7824C13.1 20.1841 12.9 20.5858 12.7 20.9874C12.7 21.0879 12.6 21.0879 12.6 21.1883C12.5 21.1883 12.5 21.2887 12.4 21.2887C12.3 21.2887 12.4 21.1883 12.4 21.0879C12.7 19.8828 12.4 18.8787 12 17.7741C11.6 16.9707 11.2 16.2678 10.7 15.5649C10.2 14.8619 9.7 14.0586 9.3 13.2552C8.9 12.4519 8.8 11.5481 8.9 10.6444C8.6 10.8452 8.4 11.046 8.2 11.3473C7.3 12.3515 6.7 13.5565 6.6 14.9623C6.5 16.0669 6.6 17.0711 7 18.0753C7 18.1757 7.2 18.3766 7 18.477C6.9 18.5774 6.8 18.3766 6.7 18.2762C6.2 17.7741 5.8 17.0711 5.7 16.2678C5.4 16.569 5.2 16.8703 5.1 17.272C4.8 17.9749 4.6 18.6778 4.6 19.4812C4.6 20.6862 5.1 21.59 5.8 22.4937C6.3 23.0962 6.9 23.4979 7.7 23.8996C7.3 23.5983 7.4 23.5983 7.4 23.6987Z" fill="#F2705A"/>
<path d="M7.39999 23.6987C5.79999 22.9958 4.69999 21.8912 4.19999 20.1841C3.89999 19.1799 4.09999 18.1757 4.49999 17.272C4.69999 16.7699 4.99999 16.3682 5.39999 15.8661C5.49999 16.3682 5.59999 16.7699 5.79999 17.1715C5.99999 17.5732 6.29999 17.8745 6.69999 18.1757C5.49999 15.0628 6.09999 12.3515 8.59999 10.2427C8.59999 10.4435 8.59999 10.6443 8.59999 10.8452C8.59999 11.6485 8.79999 12.3515 9.09999 13.0544C9.49999 13.9582 10.1 14.7615 10.6 15.5649C11 16.2678 11.5 16.8703 11.8 17.6736C12.2 18.6778 12.5 19.7824 12.1 20.887C12.5 20.6862 13 19.7824 13.2 18.9791C13.4 18.2761 13.4 17.4728 13.4 16.7699C14.1 17.9749 14.3 19.1799 13.8 20.4854C13.2 22.2929 11.9 23.4979 9.99999 24C9.89999 24.1004 9.69999 24 9.59999 24.1004C8.99999 24.1004 8.39999 24.1004 7.79999 23.8996C7.59999 23.7992 7.49999 23.7992 7.39999 23.6987Z" fill="#FED05C"/>
<path d="M9.5 23.9996C9.6 23.8996 9.7 23.8996 9.9 23.8996C10.1 23.9996 10.3 23.8996 10.5 23.8996C10.2 23.9996 9.9 23.9996 9.5 23.9996Z" fill="#F48260"/>
<path d="M7.39999 23.6987C7.49999 23.6987 7.59999 23.6987 7.69999 23.7987C7.59999 23.7987 7.49999 23.7987 7.39999 23.6987Z" fill="#F69670"/>
</g>
<defs>
<clipPath id="clip0_1286_1209">
<rect width="18" height="24" fill="white"/>
</clipPath>
</defs>
</svg>
