<svg width="27" height="28" viewBox="0 0 27 28" fill="none" xmlns="http://www.w3.org/2000/svg">
<path d="M4.14345 11.8926C4.16912 11.9783 4.22176 12.0535 4.29354 12.1069C4.36533 12.1604 4.45245 12.1892 4.54195 12.1892C4.63145 12.1892 4.71856 12.1604 4.79035 12.1069C4.86214 12.0535 4.91478 11.9783 4.94044 11.8926L5.38636 10.4059C5.62448 9.61699 6.02086 8.88488 6.55131 8.25424C7.08175 7.6236 7.73513 7.10766 8.47158 6.73791C8.5408 6.70341 8.59903 6.65029 8.63974 6.58453C8.68044 6.51877 8.702 6.44296 8.702 6.36562C8.702 6.28828 8.68044 6.21247 8.63974 6.1467C8.59903 6.08094 8.5408 6.02783 8.47158 5.99333C7.73518 5.62362 7.08182 5.10774 6.55138 4.47718C6.02094 3.84661 5.62453 3.11458 5.38636 2.32575L4.94044 0.838673C4.91478 0.752931 4.86214 0.677754 4.79035 0.624307C4.71856 0.570859 4.63145 0.541992 4.54195 0.541992C4.45245 0.541992 4.36533 0.570859 4.29354 0.624307C4.22176 0.677754 4.16912 0.752931 4.14345 0.838673L3.69754 2.32534C3.45941 3.11424 3.06303 3.84635 2.53259 4.47699C2.00215 5.10763 1.34876 5.62357 0.612315 5.99333C0.543095 6.02783 0.484864 6.08094 0.444162 6.1467C0.403459 6.21247 0.381897 6.28828 0.381897 6.36562C0.381897 6.44296 0.403459 6.51877 0.444162 6.58453C0.484864 6.65029 0.543095 6.70341 0.612315 6.73791C1.34872 7.10762 2.00208 7.62349 2.53252 8.25406C3.06296 8.88462 3.45936 9.61665 3.69754 10.4055L4.14345 11.8926ZM11.0115 4.65808C11.4738 4.88752 11.8771 5.22018 12.1904 5.63037C12.5036 6.04055 12.7184 6.51727 12.818 7.02368L12.8696 7.27908C12.8887 7.37311 12.9397 7.45765 13.014 7.51837C13.0883 7.5791 13.1813 7.61227 13.2772 7.61227C13.3732 7.61227 13.4662 7.5791 13.5405 7.51837C13.6148 7.45765 13.6658 7.37311 13.6849 7.27908L13.7365 7.02368C13.8361 6.51727 14.0508 6.04055 14.3641 5.63037C14.6773 5.22018 15.0807 4.88752 15.543 4.65808C15.6122 4.62358 15.6705 4.57046 15.7112 4.5047C15.7519 4.43893 15.7734 4.36313 15.7734 4.28579C15.7734 4.20844 15.7519 4.13264 15.7112 4.06687C15.6705 4.00111 15.6122 3.94799 15.543 3.9135C15.0807 3.68405 14.6773 3.35139 14.3641 2.9412C14.0508 2.53102 13.8361 2.0543 13.7365 1.5479L13.6849 1.29249C13.6658 1.19846 13.6148 1.11392 13.5405 1.0532C13.4662 0.992474 13.3732 0.959302 13.2772 0.959302C13.1813 0.959302 13.0883 0.992474 13.014 1.0532C12.9397 1.11392 12.8887 1.19846 12.8696 1.29249L12.818 1.5479C12.7184 2.0543 12.5036 2.53102 12.1904 2.9412C11.8771 3.35139 11.4738 3.68405 11.0115 3.9135C10.9423 3.94799 10.884 4.00111 10.8433 4.06687C10.8026 4.13264 10.7811 4.20844 10.7811 4.28579C10.7811 4.36313 10.8026 4.43893 10.8433 4.5047C10.884 4.57046 10.9423 4.62358 11.0115 4.65808ZM8.05562 18.8883C7.59331 18.6588 7.18994 18.3262 6.87669 17.916C6.56345 17.5058 6.34871 17.0291 6.24907 16.5227L6.19749 16.2673C6.1784 16.1732 6.12739 16.0887 6.05309 16.028C5.9788 15.9673 5.8858 15.9341 5.78985 15.9341C5.6939 15.9341 5.6009 15.9673 5.5266 16.028C5.45231 16.0887 5.40129 16.1732 5.3822 16.2673L5.33062 16.5227C5.23099 17.0291 5.01625 17.5058 4.703 17.916C4.38976 18.3262 3.98639 18.6588 3.52408 18.8883C3.45486 18.9228 3.39663 18.9759 3.35593 19.0417C3.31522 19.1074 3.29366 19.1832 3.29366 19.2606C3.29366 19.3379 3.31522 19.4137 3.35593 19.4795C3.39663 19.5452 3.45486 19.5984 3.52408 19.6329C3.98639 19.8623 4.38976 20.195 4.703 20.6052C5.01625 21.0153 5.23099 21.4921 5.33062 21.9985L5.3822 22.2539C5.40129 22.3479 5.45231 22.4324 5.5266 22.4932C5.6009 22.5539 5.6939 22.5871 5.78985 22.5871C5.8858 22.5871 5.9788 22.5539 6.05309 22.4932C6.12739 22.4324 6.1784 22.3479 6.19749 22.2539L6.24907 21.9985C6.34871 21.4921 6.56345 21.0153 6.87669 20.6052C7.18994 20.195 7.59331 19.8623 8.05562 19.6329C8.12484 19.5984 8.18307 19.5452 8.22377 19.4795C8.26447 19.4137 8.28603 19.3379 8.28603 19.2606C8.28603 19.1832 8.26447 19.1074 8.22377 19.0417C8.18307 18.9759 8.12484 18.9228 8.05562 18.8883ZM11.2398 8.28572C11.0048 8.05998 10.6903 7.9358 10.3644 7.94C10.0385 7.9442 9.72737 8.07646 9.49819 8.30818L8.14879 9.65841C7.91708 9.88746 7.78476 10.1985 7.7804 10.5243C7.77604 10.85 7.9 11.1645 8.1255 11.3996L11.7444 15.2141L15.0538 11.9042L11.2394 8.2853L11.2398 8.28572ZM26.1489 22.4302L15.6574 12.477L12.3172 15.8172L22.27 26.3087C22.5268 26.5783 22.8356 26.7931 23.1777 26.94C23.5198 27.087 23.8881 27.1632 24.2604 27.1639C24.9879 27.1632 25.6853 26.8738 26.1997 26.3595C26.714 25.8451 27.0034 25.1477 27.0041 24.4202C27.0041 23.6715 26.6926 22.946 26.1489 22.4302Z" fill="url(#paint0_linear_31_2236)"/>
<defs>
<linearGradient id="paint0_linear_31_2236" x1="0.899495" y1="5.90735" x2="27.2806" y2="6.42777" gradientUnits="userSpaceOnUse">
<stop stop-color="#EA81FF"/>
<stop offset="1" stop-color="#6AE4FF"/>
</linearGradient>
</defs>
</svg>
