<svg width="16" height="23" viewBox="0 0 16 23" fill="none" xmlns="http://www.w3.org/2000/svg">
<path d="M11.1149 15.2939C11.2642 16.8695 10.1031 18.0942 8.42872 18.0942C6.44807 18.0942 4.52801 16.4038 4.43416 14.4873C0.906257 16.1289 0.737366 19.2555 0.737366 21.7122C0.737366 22.3637 1.26549 22.8919 1.91695 22.8919H12.3331C12.9845 22.8919 13.5127 22.3638 13.5127 21.7122C13.5127 20.2503 13.7955 17.4414 11.1149 15.2939Z" fill="white"/>
<path d="M4.00028 10.8456C4.42291 11.1817 4.99402 11.3753 5.59647 11.3753H6.96728L6.08298 13.9788C5.94298 14.0019 5.80379 14.0298 5.66565 14.0622C5.40878 15.3261 6.8556 16.8889 8.4288 16.8889C9.54282 16.8889 10.1514 16.0788 9.84172 15.0324C9.77262 14.7989 9.66327 14.572 9.52001 14.3587C9.45782 14.3335 9.39571 14.3081 9.33255 14.2848L9.92383 12.6341H10.1171C12.2753 12.6341 14.0249 10.2359 14.0249 7.27761C14.0249 6.70216 13.958 6.1484 13.8355 5.6288C11.2264 8.06494 7.05598 10.4469 4.00028 10.8456ZM3.18733 9.69736C4.76431 9.69736 7.31382 8.7634 9.89539 7.12816C13.6066 4.77751 15.9792 1.86756 15.1946 0.628763C14.9558 0.251772 14.4521 0.072998 13.7621 0.072998C12.762 0.0730784 11.3703 0.449266 9.82758 1.1413C9.53141 0.764871 9.11971 0.503983 8.6455 0.364499C7.76642 0.10586 6.67385 0.263422 5.70984 0.874144C4.72197 1.49981 4.1065 2.45073 3.9847 3.37737C3.9209 3.86316 3.99289 4.34219 4.21851 4.76434C2.23633 6.53391 1.1968 8.2605 1.75489 9.14167C1.99376 9.51866 2.4973 9.69736 3.18733 9.69736Z" fill="white"/>
</svg>
