<svg width="24" height="22" viewBox="0 0 24 22" fill="none" xmlns="http://www.w3.org/2000/svg">
<path d="M10.0148 3.22089C10.133 3.22089 10.2463 3.17393 10.3299 3.09035C10.4135 3.00677 10.4605 2.89341 10.4605 2.77521V1.09802C10.4605 0.979822 10.4135 0.866462 10.3299 0.78288C10.2463 0.699299 10.133 0.652344 10.0148 0.652344C9.89657 0.652344 9.78321 0.699299 9.69963 0.78288C9.61605 0.866462 9.5691 0.979822 9.5691 1.09802V2.77521C9.5691 2.89341 9.61605 3.00677 9.69963 3.09035C9.78321 3.17393 9.89657 3.22089 10.0148 3.22089ZM6.10541 3.94213C6.16451 4.0445 6.26185 4.1192 6.37603 4.14979C6.49021 4.18039 6.61186 4.16437 6.71423 4.10527C6.8166 4.04617 6.89129 3.94882 6.92189 3.83465C6.95248 3.72047 6.93647 3.59882 6.87737 3.49645L6.03873 2.04398C5.97921 1.94245 5.88195 1.86859 5.76817 1.8385C5.65439 1.80842 5.53333 1.82457 5.43141 1.88341C5.32949 1.94226 5.25498 2.03903 5.22414 2.15261C5.19331 2.26618 5.20865 2.38735 5.26682 2.48966L6.10541 3.94213ZM2.23677 5.84598L3.6892 6.6848C3.7399 6.71452 3.79599 6.73393 3.85422 6.74189C3.91246 6.74985 3.97169 6.74622 4.02851 6.73119C4.08534 6.71617 4.13863 6.69005 4.18532 6.65435C4.23201 6.61865 4.27118 6.57406 4.30057 6.52316C4.32995 6.47226 4.34898 6.41605 4.35656 6.35776C4.36414 6.29948 4.36011 6.24027 4.34471 6.18355C4.32931 6.12682 4.30284 6.07371 4.26683 6.02725C4.23082 5.9808 4.18597 5.94193 4.13488 5.91288L2.68245 5.07407C2.63175 5.04434 2.57566 5.02494 2.51743 5.01698C2.45919 5.00901 2.39996 5.01265 2.34314 5.02767C2.28631 5.0427 2.23302 5.06881 2.18633 5.10451C2.13964 5.14022 2.10047 5.1848 2.07108 5.2357C2.0417 5.2866 2.02267 5.34282 2.01509 5.4011C2.00751 5.45939 2.01154 5.5186 2.02694 5.57532C2.04234 5.63204 2.06881 5.68516 2.10482 5.73161C2.14083 5.77806 2.18568 5.81693 2.23677 5.84598ZM3.41363 9.82203C3.41363 9.70383 3.36668 9.59046 3.2831 9.50688C3.19952 9.4233 3.08616 9.37635 2.96795 9.37635H1.29077C1.17257 9.37635 1.05921 9.4233 0.975629 9.50688C0.892048 9.59046 0.845093 9.70383 0.845093 9.82203C0.845093 9.94023 0.892048 10.0536 0.975629 10.1372C1.05921 10.2208 1.17257 10.2677 1.29077 10.2677H2.96795C3.08616 10.2677 3.19952 10.2208 3.2831 10.1372C3.36668 10.0536 3.41363 9.94023 3.41363 9.82203ZM4.29804 13.1226C4.26878 13.0719 4.22981 13.0275 4.18338 12.9918C4.13694 12.9562 4.08394 12.9301 4.02741 12.9149C3.97087 12.8998 3.9119 12.8959 3.85387 12.9036C3.79584 12.9112 3.73989 12.9302 3.6892 12.9595L2.23677 13.7981C2.18568 13.8271 2.14083 13.866 2.10482 13.9124C2.06881 13.9589 2.04234 14.012 2.02694 14.0687C2.01154 14.1255 2.00751 14.1847 2.01509 14.243C2.02267 14.3012 2.0417 14.3575 2.07108 14.4084C2.10047 14.4593 2.13964 14.5038 2.18633 14.5395C2.23302 14.5752 2.28631 14.6014 2.34314 14.6164C2.39996 14.6314 2.45919 14.635 2.51743 14.6271C2.57566 14.6191 2.63175 14.5997 2.68245 14.57L4.13488 13.7314C4.18557 13.7022 4.23 13.6632 4.26564 13.6168C4.30128 13.5704 4.32742 13.5174 4.34257 13.4608C4.35772 13.4043 4.36158 13.3453 4.35395 13.2873C4.34631 13.2292 4.32731 13.1733 4.29804 13.1226ZM16.118 6.74434C16.1961 6.74434 16.2728 6.72373 16.3404 6.68458L17.7929 5.84598C17.844 5.81693 17.8888 5.77806 17.9248 5.73161C17.9608 5.68516 17.9873 5.63204 18.0027 5.57532C18.0181 5.5186 18.0221 5.45939 18.0146 5.4011C18.007 5.34282 17.9879 5.2866 17.9586 5.2357C17.9292 5.1848 17.89 5.14022 17.8433 5.10451C17.7966 5.06881 17.7433 5.0427 17.6865 5.02767C17.6297 5.01265 17.5704 5.00901 17.5122 5.01698C17.454 5.02494 17.3979 5.04434 17.3472 5.07407L15.8947 5.91266C15.8097 5.96172 15.7433 6.03748 15.7057 6.12818C15.6682 6.21887 15.6616 6.31942 15.6871 6.41422C15.7125 6.50902 15.7686 6.59277 15.8465 6.65246C15.9244 6.71215 16.0198 6.74445 16.118 6.74434ZM13.3152 4.10525C13.4176 4.16435 13.5392 4.18036 13.6534 4.14977C13.7676 4.11918 13.8649 4.04449 13.924 3.94213L14.7626 2.48966C14.8207 2.38735 14.8361 2.26618 14.8052 2.15261C14.7744 2.03903 14.6999 1.94226 14.598 1.88341C14.496 1.82457 14.375 1.80842 14.2612 1.8385C14.1474 1.86859 14.0502 1.94245 13.9906 2.04398L13.1521 3.49645C13.093 3.59881 13.077 3.72046 13.1076 3.83463C13.1382 3.9488 13.2129 4.04615 13.3152 4.10525ZM8.0885 12.7015C8.24476 12.7015 8.40042 12.7091 8.55549 12.7244C8.96856 11.9514 9.63521 11.3442 10.4433 11.0049C11.2515 10.6657 12.1518 10.615 12.9929 10.8615C13.4804 10.1933 14.1356 9.6655 14.8924 9.33151C14.8152 8.56408 14.5581 7.82567 14.1419 7.17633C13.7256 6.52698 13.162 5.98502 12.4969 5.5945C11.8318 5.20398 11.0839 4.97592 10.314 4.92887C9.54414 4.88181 8.77403 5.01708 8.06629 5.32369C7.35855 5.63029 6.73314 6.09958 6.24091 6.69339C5.74868 7.28721 5.40352 7.9888 5.23349 8.74113C5.06346 9.49345 5.07336 10.2753 5.26237 11.0231C5.45139 11.7709 5.8142 12.4635 6.32129 13.0446C6.88274 12.8174 7.48282 12.7009 8.0885 12.7015Z" fill="white"/>
<path d="M20.4076 14.8575C20.7174 13.938 20.6653 12.935 20.2618 12.0526C19.8582 11.1702 19.1337 10.4748 18.2355 10.1077C17.3373 9.74068 16.333 9.72965 15.427 10.0769C14.521 10.4241 13.7813 11.1035 13.3585 11.9768C12.9728 11.7589 12.5426 11.6315 12.1005 11.6042C11.6583 11.5768 11.2157 11.6503 10.806 11.819C10.3964 11.9878 10.0305 12.2474 9.73584 12.5782C9.44122 12.9091 9.22561 13.3026 9.10529 13.7289C8.57832 13.584 8.02644 13.5534 7.48669 13.6393C6.94694 13.7252 6.43181 13.9256 5.97586 14.227C5.51992 14.5283 5.13371 14.9237 4.84316 15.3866C4.55262 15.8496 4.36444 16.3693 4.29128 16.9109C4.21812 17.4525 4.26166 18.0035 4.41897 18.5269C4.57629 19.0503 4.84374 19.534 5.20338 19.9456C5.56303 20.3571 6.00654 20.687 6.50415 20.913C7.00177 21.139 7.54197 21.256 8.08851 21.2561H20.006C20.823 21.2561 21.6094 20.9448 22.205 20.3854C22.8006 19.8261 23.1606 19.0608 23.2118 18.2454C23.2629 17.4299 23.0014 16.6256 22.4805 15.9962C21.9595 15.3668 21.2182 14.9596 20.4076 14.8575Z" fill="white"/>
</svg>
