<svg width="27" height="22" viewBox="0 0 27 22" fill="none" xmlns="http://www.w3.org/2000/svg">
<path d="M18.2925 4.86985C19.8876 4.86985 21.1201 3.96992 21.3555 2.63351C21.5926 1.28955 20.6782 0.385742 19.0832 0.385742H3.21342C1.63365 0.385742 0.412338 1.28955 0.175232 2.63351C-0.0603655 3.96992 0.843009 4.86985 2.42278 4.86985H7.74474L5.38898 18.2303C5.11803 19.7672 5.65906 21.3201 7.47056 21.3201C9.26653 21.3201 10.3436 19.7674 10.6146 18.2301L12.9706 4.86985H18.2925ZM21.1089 16.1716L19.9434 15.7716C19.6116 15.6576 19.3102 15.4695 19.0621 15.2214C18.814 14.9733 18.6259 14.6719 18.5119 14.3401L18.1119 13.1746C18.0552 13.0093 17.9484 12.8659 17.8062 12.7644C17.6641 12.6628 17.4938 12.6082 17.3191 12.6082C17.1444 12.6082 16.9741 12.6628 16.8319 12.7644C16.6898 12.8659 16.5829 13.0093 16.5263 13.1746L16.1262 14.3401C16.0123 14.6719 15.8241 14.9733 15.5761 15.2214C15.328 15.4695 15.0266 15.6576 14.6947 15.7716L13.5293 16.1716C13.3641 16.2283 13.2207 16.3352 13.1193 16.4773C13.0178 16.6194 12.9632 16.7897 12.9632 16.9643C12.9632 17.1389 13.0178 17.3092 13.1193 17.4513C13.2207 17.5935 13.3641 17.7003 13.5293 17.757L14.6947 18.1571C15.0266 18.271 15.328 18.4592 15.5761 18.7073C15.8242 18.9554 16.0123 19.2569 16.1262 19.5888L16.5263 20.754C16.5829 20.9193 16.6898 21.0627 16.8319 21.1642C16.9741 21.2658 17.1444 21.3204 17.3191 21.3204C17.4938 21.3204 17.6641 21.2658 17.8062 21.1642C17.9484 21.0627 18.0552 20.9193 18.1119 20.754L18.5119 19.5888C18.6258 19.2569 18.814 18.9554 19.0621 18.7073C19.3101 18.4592 19.6116 18.271 19.9434 18.1571L21.1089 17.757C21.2741 17.7003 21.4174 17.5935 21.5189 17.4513C21.6204 17.3092 21.6749 17.1389 21.6749 16.9643C21.6749 16.7897 21.6204 16.6194 21.5189 16.4773C21.4174 16.3352 21.2741 16.2283 21.1089 16.1716ZM26.3699 10.0674L25.5663 9.79153C25.3375 9.71301 25.1297 9.5833 24.9586 9.41229C24.7876 9.24129 24.6578 9.03349 24.5793 8.80474L24.3034 8.00116C24.2643 7.88729 24.1906 7.78846 24.0927 7.7185C23.9947 7.64853 23.8773 7.61092 23.7569 7.61092C23.6366 7.61092 23.5192 7.64853 23.4212 7.7185C23.3232 7.78846 23.2496 7.88729 23.2105 8.00116L22.9346 8.80474C22.8561 9.03355 22.7263 9.2414 22.5552 9.41245C22.3841 9.5835 22.1762 9.71323 21.9474 9.79174L21.144 10.0676C21.0302 10.1067 20.9313 10.1804 20.8614 10.2783C20.7914 10.3763 20.7538 10.4937 20.7538 10.6141C20.7538 10.7345 20.7914 10.8518 20.8614 10.9498C20.9313 11.0478 21.0302 11.1214 21.144 11.1605L21.9476 11.4364C22.1764 11.515 22.3843 11.6447 22.5553 11.8158C22.7264 11.9869 22.8561 12.1948 22.9346 12.4236L23.2105 13.227C23.2496 13.3409 23.3232 13.4397 23.4212 13.5096C23.5192 13.5796 23.6366 13.6172 23.7569 13.6172C23.8773 13.6172 23.9947 13.5796 24.0927 13.5096C24.1906 13.4397 24.2643 13.3409 24.3034 13.227L24.5793 12.4234C24.6578 12.1946 24.7876 11.9868 24.9586 11.8157C25.1296 11.6447 25.3375 11.5149 25.5663 11.4364L26.3699 11.1605C26.4837 11.1214 26.5826 11.0478 26.6525 10.9498C26.7225 10.8518 26.7601 10.7345 26.7601 10.6141C26.7601 10.4937 26.7225 10.3763 26.6525 10.2783C26.5826 10.1804 26.4837 10.1065 26.3699 10.0674Z" fill="url(#paint0_linear_33_2267)"/>
<defs>
<linearGradient id="paint0_linear_33_2267" x1="0.655746" y1="4.60489" x2="27.0302" y2="5.26652" gradientUnits="userSpaceOnUse">
<stop stop-color="#EA81FF"/>
<stop offset="1" stop-color="#6AE4FF"/>
</linearGradient>
</defs>
</svg>
